# xmcd
#
# Track frame offsets:
#	150
#	11472
#	26600
#	45800
#	60900
#	73187
#	93102
#	100902
#	113622
#	126700
#	154975
#	176800
#	190537
#	196000
#	219100
#
# Disc length: 2933 seconds
#
# Revision: 1
# Processed by: cddbd v1.4PL0 Copyright (c) Steve Scherf et al.
# Submitted via: audiograbber 1.80
#
DISCID=b90b730f
DTITLE=Georg Nussbaumer - Voices
DYEAR=1900
DGENRE=
TTITLE0=Somebody´s Calling My Name
TTITLE1=Don´t Set Me Free
TTITLE2=A Bit Of Heaven
TTITLE3=Baby I Love You
TTITLE4=Bad News From Home
TTITLE5=Helping Hands
TTITLE6=Wrong Rhythm Blues
TTITLE7=Allright, Okay, You Win
TTITLE8=Round And Round
TTITLE9=The Price
TTITLE10=Falling Back In Love
TTITLE11=Woman Blues
TTITLE12=Lise Sagt Grüßgott
TTITLE13=Lead Me
TTITLE14=Bonus Track
EXTD=Live
EXTT0=
EXTT1=
EXTT2=
EXTT3=
EXTT4=
EXTT5=
EXTT6=
EXTT7=
EXTT8=
EXTT9=
EXTT10=
EXTT11=
EXTT12=
EXTT13=
EXTT14=
PLAYORDER=
